<svg version="1.1" id="Layer_1" xmlns:x="ns_extend;" xmlns:i="ns_ai;" xmlns:graph="ns_graphs;" xmlns="http://www.w3.org/2000/svg" xmlns:xlink="http://www.w3.org/1999/xlink" x="0px" y="0px" viewBox="0 0 362.3 56" style="enable-background:new 0 0 362.3 56;" xml:space="preserve">
 <style type="text/css">
  .st0{fill-rule:evenodd;clip-rule:evenodd;fill:#FFFFFF;}
 </style>
 <metadata>
  <sfw xmlns="ns_sfw;">
   <slices>
   </slices>
   <sliceSourceBounds bottomLeftOrigin="true" height="56" width="362.3" x="-161.6" y="1">
   </sliceSourceBounds>
  </sfw>
 </metadata>
 <g id="Symbols">
  <g id="Global_x2F_Modal" transform="translate(-72.000000, -24.000000)">
   <g id="Global_x2F_Logo_x2F_Full" transform="translate(72.000000, 24.000000)">
    <path id="Logo" class="st0" d="M34.2,0c0.3,0,0.5,0,0.8,0.1c6.2,1.5,11.7,5,15.7,10c4.1,5.1,6.3,11.3,6.3,17.9
				c0,6.6-2.2,12.8-6.3,17.9c-4,5-9.6,8.5-15.7,10C34.7,56,34.4,56,34.2,56c-1.8,0-3.3-1.5-3.3-3.3c0-1.6,1.1-3,2.6-3.3
				c5.5-1.3,10.4-4.8,13.4-9.7l0,0l0,0c0.4-0.7,0.4-1.6,0-2.4c-0.4-0.8-1.3-1.3-2.1-1.3c-0.4,0-0.7,0.1-1,0.2
				c-1.2,0.6-2.5,0.9-3.8,0.9c-4.8,0-8.8-3.8-9-8.6l0,0l0,0l0,0c0-0.1,0-0.3,0-0.4l0,0v-0.2c0-0.1,0-0.2,0-0.4l0,0l0,0l0,0
				c0.3-4.8,4.2-8.5,9-8.5c1.3,0,2.6,0.3,3.8,0.9c0.3,0.2,0.7,0.2,1,0.2c0.9,0,1.7-0.5,2.1-1.3c0.4-0.7,0.4-1.6,0-2.4l0,0l0-0.1
				c-3-4.8-7.9-8.4-13.4-9.7c-1.5-0.4-2.6-1.7-2.6-3.3C30.9,1.5,32.4,0,34.2,0z M22.8,0c1.8,0,3.3,1.5,3.3,3.3c0,1.6-1,3-2.6,3.3
				C18,8,13.1,11.5,10.1,16.3l0,0l0,0l0,0c-0.4,0.7-0.5,1.6,0,2.4c0.4,0.8,1.3,1.3,2.1,1.3c0.4,0,0.7-0.1,1-0.2
				c1.2-0.6,2.5-0.9,3.8-0.9c4.8,0,8.8,3.8,9,8.6l0,0l0,0l0,0c0,0.1,0,0.2,0,0.4l0,0l0,0.1l0,0c0,0,0,0,0,0.1v0.1c0,0.1,0,0.2,0,0.4
				l0,0l0,0l0,0c-0.3,4.8-4.2,8.6-9,8.6c-1.3,0-2.6-0.3-3.8-0.9c-0.3-0.2-0.7-0.2-1-0.2c-0.9,0-1.7,0.5-2.1,1.3
				c-0.4,0.7-0.4,1.6,0,2.4l0,0l0,0c3,4.8,7.9,8.4,13.4,9.7c1.5,0.4,2.6,1.7,2.6,3.3c0,1.8-1.5,3.3-3.3,3.3c-0.3,0-0.5,0-0.8-0.1
				c-6.2-1.5-11.7-5-15.7-10C2.2,40.8,0,34.6,0,28c0-6.6,2.2-12.8,6.3-17.9c4-5,9.6-8.5,15.7-10C22.2,0,22.5,0,22.8,0z M179.1,16.6
				l6.4,16.3l6.5-16.3h3.7l-12.3,30.1h-3.6l3.7-9.2l-8.3-20.8H179.1z M133.2,16.1c5.7,0,10.4,4.7,10.4,10.8c0,6.7-5,11.3-10.6,11.3
				c-3.5,0-6-1.5-7.5-3.7l0,0h-0.1v12.2h-3.5V16.6h3.5v3.3h0.1C127.3,17.4,130.3,16.1,133.2,16.1z M164,16.1
				c6.3,0,10.8,5.1,10.8,11.1c0,6-4.3,11-10.8,11c-6.5,0-10.8-5-10.8-11C153.2,21.2,157.7,16.1,164,16.1z M76.1,16.1
				c6.2,0,10.5,5,10.5,12.5l0,0H69.4c0.5,3.6,3.3,6.2,7.2,6.2c2.5,0,4.7-1.2,6.4-3.4l0,0l2.7,2.2c-2.7,3.2-5.5,4.6-9,4.6
				c-7.1,0-10.9-5.4-10.9-11.1C65.7,21.2,69.8,16.1,76.1,16.1z M351.5,16.1c6.3,0,10.8,5.1,10.8,11.1c0,6-4.3,11-10.8,11
				c-6.5,0-10.8-5-10.8-11C340.7,21.2,345.2,16.1,351.5,16.1z M317.2,16.1c6.2,0,10.5,5,10.5,12.5l0,0h-17.1
				c0.5,3.6,3.3,6.2,7.2,6.2c2.5,0,4.7-1.2,6.4-3.4l0,0l2.7,2.2c-2.7,3.2-5.5,4.6-9,4.6c-7.1,0-10.9-5.4-10.9-11.1
				C306.9,21.2,310.9,16.1,317.2,16.1z M240,16.1c6.2,0,10.5,5,10.5,12.5l0,0h-17.1c0.5,3.6,3.3,6.2,7.2,6.2c2.5,0,4.7-1.2,6.4-3.4
				l0,0l2.7,2.2c-2.7,3.2-5.5,4.6-9,4.6c-7.1,0-10.9-5.4-10.9-11.1C229.6,21.2,233.7,16.1,240,16.1z M219.3,16.1
				c4.3,0,7.7,2.7,7.7,8.3l0,0v13.3h-3.5V24.8c0-3.7-2-5.3-4.4-5.3c-2.9,0-5,1.9-5,5.4l0,0v12.8h-3.5V24.8c0-3.7-2-5.3-4.4-5.3
				c-2.9,0-5,1.9-5,5.4l0,0v12.8h-3.5V16.6h3.5v2.5h0.1c0.9-2.2,3.4-3,5.5-3c2,0,4.3,0.6,5.9,3.7C214,17.1,216.7,16.1,219.3,16.1z
				 M261.9,16.1c3.9,0,7.7,2.2,7.7,8l0,0v13.7h-3.5V25.5c0-3.2-1.2-5.9-4.7-5.9c-3.2,0-5.2,2.3-5.2,6.3l0,0v11.9h-3.5V16.6h3.5v2.5
				h0.1C257.4,17.2,259.7,16.1,261.9,16.1z M277.3,11.5v5.1h3.2v3.2h-3.2v13c0,1.1,0.3,1.5,1.7,1.5l0,0h1.6v3.4c-0.3,0-0.8,0-1.3,0
				l-0.8,0c-3.5,0-4.6-1.3-4.6-4.5l0,0V19.8h-2.8v-3.2h2.8v-5.1H277.3z M340.2,16.1V20c-0.5-0.1-1-0.2-1.6-0.2c-2.9,0-4.8,2.1-4.8,6
				l0,0v12h-3.5V16.6h3.5v3h0.1C335.6,16.3,337.2,16.1,340.2,16.1L340.2,16.1z M149.5,9.3v21.8c0,2.4,1.1,3.2,2.2,3.2l0,0h1v3.4
				h-1.4c-3.2,0-5.3-1.9-5.3-6.3l0,0V9.3H149.5z M110.6,16.1c4.3,0,7.7,2.7,7.7,8.3l0,0v13.3h-3.5V24.8c0-3.7-2-5.3-4.4-5.3
				c-2.9,0-5,1.9-5,5.4l0,0v12.8H102V24.8c0-3.7-2-5.3-4.4-5.3c-2.9,0-5,1.9-5,5.4l0,0v12.8h-3.5V16.6h3.5v2.5h0.1
				c0.9-2.2,3.4-3,5.5-3c2,0,4.3,0.6,5.9,3.7C105.3,17.1,108,16.1,110.6,16.1z M291.1,9.3v9.8h0.1c1-1.9,3.3-3,5.5-3
				c3.9,0,7.7,2.2,7.7,8l0,0v13.7h-3.5V25.5c0-3.2-1.2-5.9-4.7-5.9c-3.2,0-5.2,2.3-5.2,6.3l0,0v11.9h-3.5V9.3H291.1z M132.6,19.5
				c-3.8,0-7.1,3.4-7.1,7.7c0,4.2,3.2,7.6,7.2,7.6c3.7,0,7.2-3,7.2-7.8C140,23.5,137.3,19.5,132.6,19.5z M351.5,19.5
				c-3.8,0-7.2,3.3-7.2,7.7c0,4.1,3.3,7.6,7.2,7.6c3.8,0,7.2-3.6,7.2-7.6C358.7,22.8,355.3,19.5,351.5,19.5z M164,19.5
				c-3.8,0-7.2,3.3-7.2,7.7c0,4.1,3.3,7.6,7.2,7.6s7.1-3.6,7.1-7.6C171.2,22.8,167.9,19.5,164,19.5z M76,19.5c-4.2,0-6.3,3.2-6.6,6
				l0,0h13.2C82.3,22.1,79.6,19.5,76,19.5z M239.9,19.5c-4.2,0-6.3,3.2-6.6,6l0,0h13.2C246.2,22.1,243.5,19.5,239.9,19.5z
				 M317.2,19.5c-4.2,0-6.3,3.2-6.6,6l0,0h13.2C323.4,22.1,320.7,19.5,317.2,19.5z">
    </path>
   </g>
  </g>
 </g>
</svg>
