<svg fill="black" viewBox="0 0 355 59" xmlns="http://www.w3.org/2000/svg" xmlns:xlink="http://www.w3.org/1999/xlink"><g stroke="none"><path d="M260.48,5.96855898e-13 C274.91,5.96855898e-13 286.6,9.4 286.6,29.29 C286.6,49.72 274.91,58.66 260.48,58.66 C246.05,58.66 234.36,49.72 234.36,29.29 C234.36,9.56 246.05,5.96855898e-13 260.48,5.96855898e-13 Z M67.95,0.68 L67.95,57.09 L57.24,57.09 L57.24,8.54 C57.24,5.22 55.1,2.37 50.24,1.07 L50.24,0.68 L67.95,0.68 Z M164.07,0.68 L164.07,57.09 L153.35,57.09 L153.35,8.54 C153.35,5.22 151.22,2.37 146.35,1.07 L146.35,0.68 L164.07,0.68 Z M92.27,0.67971107 C95.7632042,0.654236557 99.0443953,2.35282353 101.04,5.22 L110.37,19.03 L125.1,0.67971107 L137.1,0.67971107 L115.8,27.27 L132.57,52.45 C133.19987,53.3881365 134.004524,54.1961855 134.94,54.83 C135.917306,55.5205101 137.016747,56.0193306 138.18,56.3 L139.57,56.68 L139.57,57.09 L130.97,57.09 C127.469575,57.0667387 124.198817,55.343717 122.2,52.47 L110.27,34.36 L91.82,57.09 L80.97,57.09 L104.68,26.09 L90.54,5.15 C89.918134,4.2515862 89.1429724,3.4696546 88.25,2.84 C87.2930653,2.16494456 86.2227759,1.66705678 85.09,1.37 L83.67,1.07 L83.67,0.67971107 L92.27,0.67971107 Z M17.29,0.68 L17.29,48.19 L42.06,48.19 L44.06,57.09 L6.95,57.09 L6.95,8.56 C6.95,5.24 4.81,2.4 6.53699317e-13,1.09 L6.53699317e-13,1.09 L6.53699317e-13,0.68 L17.29,0.68 Z M307.53,0.729707169 C311.020513,0.704058824 314.298765,2.40306129 316.29,5.27 L325.62,19.08 L340.35,0.729707169 L352.44,0.729707169 L331.14,27.32 L347.92,52.5 C348.54425,53.4427341 349.349903,54.2517859 350.29,54.88 C351.266206,55.572428 352.366029,56.0714218 353.53,56.35 L354.83,56.68 L354.83,57.09 L346.22,57.09 C342.722694,57.0651789 339.455637,55.3421423 337.46,52.47 L325.52,34.36 L307.08,57.09 L296.23,57.09 L319.93,26.09 L305.79,5.2 C305.173301,4.29730648 304.397297,3.51452477 303.5,2.89 C302.544166,2.21304513 301.473519,1.71499099 300.34,1.42 L298.92,1.12 L298.92,0.729707169 L307.53,0.729707169 Z M220.99,15.39 C220.99,23.98 213.99,26.72 209.24,28.33 C214.92,29.64 221.04,32.79 221.04,42.11 L221.05,42.09 C221.05,45.25 219.43,57.09 199.45,57.09 L178.29,57.09 L178.29,8.61 C178.23367,4.67419005 175.210789,1.41811578 171.29,1.07 L171.29,0.68 L199.44,0.68 C217.13,0.45 220.99,10.77 220.99,15.39 Z M260.48,1.94 C251.38,1.94 247.75,12.21 247.75,29.34 C247.75,47.12 251.45,56.23 260.48,56.23 C269.51,56.23 273.21,47.12 273.21,29.34 C273.21,12.06 269.58,1.94 260.48,1.94 Z M197.400865,29.3803915 L189.94,29.38 L189.94,54.09 L199.457884,54.0894606 C199.990473,54.071569 212.24,53.5356522 212.24,42.09 L212.25,42.09 C212.25,30.5765217 199.96156,29.4045097 197.400865,29.3803915 Z M198.19,3.38 L189.94,3.38 L189.94,26.64 L199.85,26.64 C202.733182,26.6616577 205.503989,25.5231384 207.538999,23.4806053 C209.574009,21.4380721 210.702297,18.6630825 210.67,15.78 C210.67,7.84 205.38,3.38 198.19,3.38 Z"></path></g></svg>
